<svg style="enable-background:new 0 0 1000 1000" xmlns="http://www.w3.org/2000/svg" version="1" viewBox="0 0 1000 1000">
  <path d="M0 5000V0h10000v10000H0V5000zm4718-7-3-4378H625v2300l925 3 925 2-3 3213c-1 1766 0 3218 3 3225 3 9 238 12 1125 12h1120l-2-4377zm2812 1152V2920h1850V610l-2042 2-2043 3-3 4378-2 4377h2240V6145zm-4210-880V2040H1470v-550h2390v7000h-540V5265zm2820-275V1490h2400v550H6690v6450h-550V4990z" transform="matrix(.1 0 0 -.1 0 1000)" style="fill-rule:evenodd;clip-rule:evenodd:"/>
</svg>