<svg{{ with .size }} height="{{ . }}" {{ end }} style="enable-background:new 0 0 1000 1000;" xmlns="http://www.w3.org/2000/svg" version="1" width="{{ .size }}" viewBox="0 0 1000 1000" preserveAspectRatio="xMidYMid meet">
  <g transform="translate(0.000000,1000.000000) scale(0.100000,-0.100000)" style="fill-rule:evenodd;clip-rule:evenodd;fill:{{ .fill }};">
    <path d="M0 5000l0-5000 5000 0 5000 0 0 5000 0 5000-5000 0-5000 0 0-5000zm4718-7l-3-4378-2045 0-2045 0 0 1150 0 1150 925 3 925 2-3 3213c-1 1766 0 3218 3 3225 3 9 238 12 1125 12l1120 0-2-4377zm2812 1152l0-3225 925 0 925 0 0-1155 0-1155-2042 2-2043 3-3 4378-2 4377 1120 0 1120 0 0-3225zM3320 5265l0-3225-925 0-925 0 0-275 0-275 1195 0 1195 0 0 3500 0 3500-270 0-270 0 0-3225zM6140 4990l0-3500 1200 0 1200 0 0 275 0 275-925 0-925 0 0 3225 0 3225-275 0-275 0 0-3500z"/>
  </g>
</svg>